<mxfile host="app.diagrams.net" modified="2023-05-16T02:35:45.943Z" agent="Mozilla/5.0 (Windows NT 10.0; Win64; x64) AppleWebKit/537.36 (KHTML, like Gecko) Chrome/113.0.0.0 Safari/537.36" etag="Lf1JdTfkS8ICQbxo1UOD" version="21.3.2" type="device">
  <diagram name="Page-1" id="ckhyDdBjdf7VV-SoTYt0">
    <mxGraphModel dx="1434" dy="764" grid="1" gridSize="10" guides="1" tooltips="1" connect="1" arrows="1" fold="1" page="1" pageScale="1" pageWidth="827" pageHeight="1169" math="0" shadow="0">
      <root>
        <mxCell id="0" />
        <mxCell id="1" parent="0" />
        <mxCell id="PssZCjCMArQX7xHpVJHe-1" value="Vuelo" style="swimlane;fontStyle=1;align=center;verticalAlign=top;childLayout=stackLayout;horizontal=1;startSize=26;horizontalStack=0;resizeParent=1;resizeParentMax=0;resizeLast=0;collapsible=1;marginBottom=0;whiteSpace=wrap;html=1;" vertex="1" parent="1">
          <mxGeometry x="140" y="110" width="160" height="110" as="geometry" />
        </mxCell>
        <mxCell id="PssZCjCMArQX7xHpVJHe-2" value="- fechaSalida: Integer&lt;br&gt;- fechaRegreso: Integer&lt;br&gt;- origen: String&lt;br&gt;- destino: String" style="text;strokeColor=none;fillColor=none;align=left;verticalAlign=top;spacingLeft=4;spacingRight=4;overflow=hidden;rotatable=0;points=[[0,0.5],[1,0.5]];portConstraint=eastwest;whiteSpace=wrap;html=1;" vertex="1" parent="PssZCjCMArQX7xHpVJHe-1">
          <mxGeometry y="26" width="160" height="74" as="geometry" />
        </mxCell>
        <mxCell id="PssZCjCMArQX7xHpVJHe-3" value="" style="line;strokeWidth=1;fillColor=none;align=left;verticalAlign=middle;spacingTop=-1;spacingLeft=3;spacingRight=3;rotatable=0;labelPosition=right;points=[];portConstraint=eastwest;strokeColor=inherit;" vertex="1" parent="PssZCjCMArQX7xHpVJHe-1">
          <mxGeometry y="100" width="160" height="10" as="geometry" />
        </mxCell>
        <mxCell id="PssZCjCMArQX7xHpVJHe-5" value="Hotel" style="swimlane;fontStyle=1;align=center;verticalAlign=top;childLayout=stackLayout;horizontal=1;startSize=26;horizontalStack=0;resizeParent=1;resizeParentMax=0;resizeLast=0;collapsible=1;marginBottom=0;whiteSpace=wrap;html=1;" vertex="1" parent="1">
          <mxGeometry x="140" y="260" width="160" height="100" as="geometry" />
        </mxCell>
        <mxCell id="PssZCjCMArQX7xHpVJHe-6" value="- fechaSalida: Integer&lt;br&gt;- fechaRegreso: Integer&lt;br&gt;- ciudad: String" style="text;strokeColor=none;fillColor=none;align=left;verticalAlign=top;spacingLeft=4;spacingRight=4;overflow=hidden;rotatable=0;points=[[0,0.5],[1,0.5]];portConstraint=eastwest;whiteSpace=wrap;html=1;" vertex="1" parent="PssZCjCMArQX7xHpVJHe-5">
          <mxGeometry y="26" width="160" height="64" as="geometry" />
        </mxCell>
        <mxCell id="PssZCjCMArQX7xHpVJHe-7" value="" style="line;strokeWidth=1;fillColor=none;align=left;verticalAlign=middle;spacingTop=-1;spacingLeft=3;spacingRight=3;rotatable=0;labelPosition=right;points=[];portConstraint=eastwest;strokeColor=inherit;" vertex="1" parent="PssZCjCMArQX7xHpVJHe-5">
          <mxGeometry y="90" width="160" height="10" as="geometry" />
        </mxCell>
        <mxCell id="PssZCjCMArQX7xHpVJHe-8" value="&amp;lt;&amp;lt;Interface&amp;gt;&amp;gt; Buscar" style="swimlane;fontStyle=1;align=center;verticalAlign=top;childLayout=stackLayout;horizontal=1;startSize=26;horizontalStack=0;resizeParent=1;resizeParentMax=0;resizeLast=0;collapsible=1;marginBottom=0;whiteSpace=wrap;html=1;" vertex="1" parent="1">
          <mxGeometry x="430" y="120" width="160" height="90" as="geometry" />
        </mxCell>
        <mxCell id="PssZCjCMArQX7xHpVJHe-10" value="" style="line;strokeWidth=1;fillColor=none;align=left;verticalAlign=middle;spacingTop=-1;spacingLeft=3;spacingRight=3;rotatable=0;labelPosition=right;points=[];portConstraint=eastwest;strokeColor=inherit;" vertex="1" parent="PssZCjCMArQX7xHpVJHe-8">
          <mxGeometry y="26" width="160" height="8" as="geometry" />
        </mxCell>
        <mxCell id="PssZCjCMArQX7xHpVJHe-11" value="+buscarViaje(ciudadHotel String, fechaDesdeDonde Integer)" style="text;strokeColor=none;fillColor=none;align=left;verticalAlign=top;spacingLeft=4;spacingRight=4;overflow=hidden;rotatable=0;points=[[0,0.5],[1,0.5]];portConstraint=eastwest;whiteSpace=wrap;html=1;" vertex="1" parent="PssZCjCMArQX7xHpVJHe-8">
          <mxGeometry y="34" width="160" height="56" as="geometry" />
        </mxCell>
        <mxCell id="PssZCjCMArQX7xHpVJHe-12" value="FacadeBuscar" style="swimlane;fontStyle=1;align=center;verticalAlign=top;childLayout=stackLayout;horizontal=1;startSize=26;horizontalStack=0;resizeParent=1;resizeParentMax=0;resizeLast=0;collapsible=1;marginBottom=0;whiteSpace=wrap;html=1;" vertex="1" parent="1">
          <mxGeometry x="440" y="310" width="160" height="90" as="geometry" />
        </mxCell>
        <mxCell id="PssZCjCMArQX7xHpVJHe-25" value="" style="endArrow=block;dashed=1;endFill=0;endSize=12;html=1;rounded=0;entryX=0.488;entryY=1.054;entryDx=0;entryDy=0;entryPerimeter=0;" edge="1" parent="PssZCjCMArQX7xHpVJHe-12" target="PssZCjCMArQX7xHpVJHe-11">
          <mxGeometry width="160" relative="1" as="geometry">
            <mxPoint x="70" as="sourcePoint" />
            <mxPoint x="230" as="targetPoint" />
          </mxGeometry>
        </mxCell>
        <mxCell id="PssZCjCMArQX7xHpVJHe-14" value="" style="line;strokeWidth=1;fillColor=none;align=left;verticalAlign=middle;spacingTop=-1;spacingLeft=3;spacingRight=3;rotatable=0;labelPosition=right;points=[];portConstraint=eastwest;strokeColor=inherit;" vertex="1" parent="PssZCjCMArQX7xHpVJHe-12">
          <mxGeometry y="26" width="160" height="8" as="geometry" />
        </mxCell>
        <mxCell id="PssZCjCMArQX7xHpVJHe-15" value="+buscarViaje(ciudadHotel String, fechaDesdeDonde Integer)" style="text;strokeColor=none;fillColor=none;align=left;verticalAlign=top;spacingLeft=4;spacingRight=4;overflow=hidden;rotatable=0;points=[[0,0.5],[1,0.5]];portConstraint=eastwest;whiteSpace=wrap;html=1;" vertex="1" parent="PssZCjCMArQX7xHpVJHe-12">
          <mxGeometry y="34" width="160" height="56" as="geometry" />
        </mxCell>
        <mxCell id="PssZCjCMArQX7xHpVJHe-16" value="ApiVuelo" style="swimlane;fontStyle=0;childLayout=stackLayout;horizontal=1;startSize=26;fillColor=none;horizontalStack=0;resizeParent=1;resizeParentMax=0;resizeLast=0;collapsible=1;marginBottom=0;whiteSpace=wrap;html=1;" vertex="1" parent="1">
          <mxGeometry x="260" y="490" width="140" height="60" as="geometry" />
        </mxCell>
        <mxCell id="PssZCjCMArQX7xHpVJHe-17" value="+busquedaVuelo(vuelo: Vuelo) String" style="text;strokeColor=none;fillColor=none;align=left;verticalAlign=top;spacingLeft=4;spacingRight=4;overflow=hidden;rotatable=0;points=[[0,0.5],[1,0.5]];portConstraint=eastwest;whiteSpace=wrap;html=1;" vertex="1" parent="PssZCjCMArQX7xHpVJHe-16">
          <mxGeometry y="26" width="140" height="34" as="geometry" />
        </mxCell>
        <mxCell id="PssZCjCMArQX7xHpVJHe-20" value="ApiHotel" style="swimlane;fontStyle=0;childLayout=stackLayout;horizontal=1;startSize=26;fillColor=none;horizontalStack=0;resizeParent=1;resizeParentMax=0;resizeLast=0;collapsible=1;marginBottom=0;whiteSpace=wrap;html=1;" vertex="1" parent="1">
          <mxGeometry x="520" y="490" width="140" height="80" as="geometry" />
        </mxCell>
        <mxCell id="PssZCjCMArQX7xHpVJHe-22" value="+busquedaHotel(hotel: Hotel) String" style="text;strokeColor=none;fillColor=none;align=left;verticalAlign=top;spacingLeft=4;spacingRight=4;overflow=hidden;rotatable=0;points=[[0,0.5],[1,0.5]];portConstraint=eastwest;whiteSpace=wrap;html=1;" vertex="1" parent="PssZCjCMArQX7xHpVJHe-20">
          <mxGeometry y="26" width="140" height="54" as="geometry" />
        </mxCell>
        <mxCell id="PssZCjCMArQX7xHpVJHe-26" value="" style="endArrow=open;endFill=1;endSize=12;html=1;rounded=0;entryX=0.5;entryY=0;entryDx=0;entryDy=0;" edge="1" parent="1" target="PssZCjCMArQX7xHpVJHe-16">
          <mxGeometry width="160" relative="1" as="geometry">
            <mxPoint x="520" y="400" as="sourcePoint" />
            <mxPoint x="680" y="400" as="targetPoint" />
          </mxGeometry>
        </mxCell>
        <mxCell id="PssZCjCMArQX7xHpVJHe-27" value="" style="endArrow=open;endFill=1;endSize=12;html=1;rounded=0;entryX=0.5;entryY=0;entryDx=0;entryDy=0;exitX=0.538;exitY=1;exitDx=0;exitDy=0;exitPerimeter=0;" edge="1" parent="1" source="PssZCjCMArQX7xHpVJHe-15" target="PssZCjCMArQX7xHpVJHe-20">
          <mxGeometry width="160" relative="1" as="geometry">
            <mxPoint x="530" y="410" as="sourcePoint" />
            <mxPoint x="340" y="500" as="targetPoint" />
          </mxGeometry>
        </mxCell>
      </root>
    </mxGraphModel>
  </diagram>
</mxfile>
